<?xml version="1.0" standalone="no"?><!DOCTYPE svg PUBLIC "-//W3C//DTD SVG 1.1//EN" "http://www.w3.org/Graphics/SVG/1.1/DTD/svg11.dtd"><svg t="1664455763465" class="icon" viewBox="0 0 1025 1024" version="1.1" xmlns="http://www.w3.org/2000/svg" p-id="12144" xmlns:xlink="http://www.w3.org/1999/xlink" width="20.01953125" height="20"><path d="M219.424 676.576l0 36.576q0 7.424-5.44 12.864t-12.864 5.44l-36.576 0q-7.424 0-12.864-5.44t-5.44-12.864l0-36.576q0-7.424 5.44-12.864t12.864-5.44l36.576 0q7.424 0 12.864 5.44t5.44 12.864zM219.424 530.272l0 36.576q0 7.424-5.44 12.864t-12.864 5.44l-36.576 0q-7.424 0-12.864-5.44t-5.44-12.864l0-36.576q0-7.424 5.44-12.864t12.864-5.44l36.576 0q7.424 0 12.864 5.44t5.44 12.864zM219.424 384l0 36.576q0 7.424-5.44 12.864t-12.864 5.44l-36.576 0q-7.424 0-12.864-5.44t-5.44-12.864l0-36.576q0-7.424 5.44-12.864t12.864-5.44l36.576 0q7.424 0 12.864 5.44t5.44 12.864zM877.728 676.576l0 36.576q0 7.424-5.44 12.864t-12.864 5.44l-548.576 0q-7.424 0-12.864-5.44t-5.44-12.864l0-36.576q0-7.424 5.44-12.864t12.864-5.44l548.576 0q7.424 0 12.864 5.44t5.44 12.864zM877.728 530.272l0 36.576q0 7.424-5.44 12.864t-12.864 5.44l-548.576 0q-7.424 0-12.864-5.44t-5.44-12.864l0-36.576q0-7.424 5.44-12.864t12.864-5.44l548.576 0q7.424 0 12.864 5.44t5.44 12.864zM877.728 384l0 36.576q0 7.424-5.44 12.864t-12.864 5.44l-548.576 0q-7.424 0-12.864-5.44t-5.44-12.864l0-36.576q0-7.424 5.44-12.864t12.864-5.44l548.576 0q7.424 0 12.864 5.44t5.44 12.864zM950.848 786.272l0-475.424q0-7.424-5.44-12.864t-12.864-5.44l-841.152 0q-7.424 0-12.864 5.44t-5.44 12.864l0 475.424q0 7.424 5.44 12.864t12.864 5.44l841.152 0q7.424 0 12.864-5.44t5.44-12.864zM1024 164.576l0 621.728q0 37.728-26.848 64.576t-64.576 26.848l-841.152 0q-37.728 0-64.576-26.848t-26.848-64.576l0-621.728q0-37.728 26.848-64.576t64.576-26.848l841.152 0q37.728 0 64.576 26.848t26.848 64.576z" p-id="12145"></path></svg>