<?xml version="1.0" standalone="no"?><!DOCTYPE svg PUBLIC "-//W3C//DTD SVG 1.1//EN" "http://www.w3.org/Graphics/SVG/1.1/DTD/svg11.dtd"><svg t="1664457559743" class="icon" viewBox="0 0 1024 1024" version="1.1" xmlns="http://www.w3.org/2000/svg" p-id="23158" xmlns:xlink="http://www.w3.org/1999/xlink" width="20" height="20"><path d="M767.4 664.77A94.18 94.18 0 1 0 861.58 759a94.28 94.28 0 0 0-94.18-94.23z m0 147.82A53.65 53.65 0 1 1 821.05 759a53.7 53.7 0 0 1-53.65 53.59z" p-id="23159"></path><path d="M935.5 770a7.19 7.19 0 0 1 0.33-14.32 20.28 20.28 0 0 0 18.35-23 190.35 190.35 0 0 0-31.06-80.07 20.27 20.27 0 0 0-29.12-4.74 7.19 7.19 0 0 1-9.87-10.37 20.28 20.28 0 0 0-3.31-29.28 190.66 190.66 0 0 0-19.07-12.75 188.2 188.2 0 0 0-59.54-21.9 20.27 20.27 0 0 0-23.84 17.28 7.18 7.18 0 0 1-14.31-0.33 20.28 20.28 0 0 0-23-18.35A190.21 190.21 0 0 0 661 603.23a20.26 20.26 0 0 0-4.66 29.07 7.3 7.3 0 0 1-0.54 9.57 7.22 7.22 0 0 1-9.83 0.31 20.28 20.28 0 0 0-29.28 3.31A183 183 0 0 0 582 724.1a20.27 20.27 0 0 0 17.28 23.84 7.19 7.19 0 0 1-0.34 14.31 20.27 20.27 0 0 0-18.34 23 190.08 190.08 0 0 0 31.06 80.07 20.26 20.26 0 0 0 29.1 4.68 7.19 7.19 0 0 1 9.88 10.37 20.26 20.26 0 0 0 3.36 29.3 183 183 0 0 0 78.61 34.65A20.25 20.25 0 0 0 756.39 927a7.19 7.19 0 0 1 14.32 0.34 20.26 20.26 0 0 0 20.19 18.54 21 21 0 0 0 2.85-0.2 190.08 190.08 0 0 0 80.07-31.06 20.26 20.26 0 0 0 4.66-29.07 7.19 7.19 0 0 1 10.37-9.88 20.26 20.26 0 0 0 29.28-3.31 183 183 0 0 0 34.65-78.61A20.25 20.25 0 0 0 935.5 770z m-26.35 32a145.7 145.7 0 0 1-13.37 31.08c-0.29 0.51-0.58 1-0.89 1.51a47.71 47.71 0 0 0-57.7 54.95A150.25 150.25 0 0 1 804 902.43a47.71 47.71 0 0 0-79.61-1.74 145.2 145.2 0 0 1-31.08-13.37l-1.51-0.88a47.72 47.72 0 0 0-54.95-57.71 150.25 150.25 0 0 1-12.91-33.21 47.71 47.71 0 0 0 1.74-79.61A145.2 145.2 0 0 1 639 684.83c0.29-0.51 0.58-1 0.89-1.51a47.71 47.71 0 0 0 57.7-55 149.73 149.73 0 0 1 33.21-12.9 47.7 47.7 0 0 0 79.61 1.73 145.7 145.7 0 0 1 31.08 13.37l1.51 0.89a47.71 47.71 0 0 0 55 57.7 149.73 149.73 0 0 1 12.9 33.21 47.7 47.7 0 0 0-1.75 79.68zM510.49 522.34c117.07 0 212.31-95.24 212.31-212.34S627.56 97.72 510.49 97.72 298.19 193 298.19 310s95.24 212.34 212.3 212.34z m0-384.09c94.72 0 171.78 77.06 171.78 171.78s-77.06 171.78-171.78 171.78S338.72 404.75 338.72 310s77.06-171.75 171.77-171.75z" p-id="23160"></path><path d="M590.8 894.31H235.67a122.18 122.18 0 0 1-121.76-121.77v-27.19a122.16 122.16 0 0 1 121.76-121.76h349.87a20.27 20.27 0 0 0 0-40.53H235.67c-89.49 0-162.29 72.8-162.29 162.29v27.19c0 89.49 72.8 162.3 162.29 162.3H590.8a20.27 20.27 0 1 0 0-40.53z" p-id="23161"></path></svg>