<?xml version="1.0" encoding="UTF-8" standalone="no"?>
<!-- Generator: Adobe Illustrator 22.1.0, SVG Export Plug-In . SVG Version: 6.00 Build 0)  -->
<svg id="圖層_1" style="enable-background:new 0 0 27 22" xmlns="http://www.w3.org/2000/svg" xml:space="preserve" viewBox="0 0 27 22" version="1.1" y="0px" x="0px" xmlns:xlink="http://www.w3.org/1999/xlink">
<style type="text/css">
	.st0{fill:url(#SVGID_1_);}
	.st1{fill:#212121;}
	.st2{fill:#111111;}
	.st3{fill:url(#SVGID_2_);}
	.st4{fill:none;}
</style>
				<linearGradient id="SVGID_1_" y2="5.4201" gradientUnits="userSpaceOnUse" x2="13.5" gradientTransform="matrix(1 0 0 -1 0 24)" y1="23.798" x1="13.5">
				<stop stop-color="#424242" offset="0"/>
				<stop stop-color="#010001" offset="1"/>
			</linearGradient>
			<path class="st0" d="m26.6 15.9h-0.4v-4.2h0.4c0.2 0 0.4-0.2 0.4-0.4s-0.2-0.4-0.4-0.4h-0.4v-4.4h-5.8v-3.9h-2.2v-2.6h-9.3v2.6h-2.3v3.8h-5.8v4.4h-0.4c-0.2 0-0.4 0.2-0.4 0.4s0.2 0.4 0.4 0.4h0.4v4.2h-0.4c-0.2 0.1-0.4 0.2-0.4 0.5s0.2 0.4 0.4 0.4h0.4v4.3h25.4v-4.3h0.4c0.2 0 0.4-0.2 0.4-0.4s-0.2-0.4-0.4-0.4z"/>
			<path class="st1" d="m22.4 12h-17.8c-0.6 0-1.1 0.5-1.1 1.1v7.9h20v-7.9c0-0.6-0.5-1.1-1.1-1.1z"/>
				<rect y="15.8" x="6" height="5.2" class="st2" width="1"/>
				<rect y="15.8" x="8" height="5.2" class="st2" width="1"/>
				<rect y="15.8" x="10" height="5.2" class="st2" width="1"/>
				<rect y="15.8" x="11.9" height="5.2" class="st2" width="1"/>
				<rect y="15.8" x="13.9" height="5.2" class="st2" width="1"/>
				<rect y="15.8" x="15.8" height="5.2" class="st2" width="1"/>
				<rect y="15.8" x="17.8" height="5.2" class="st2" width="1"/>
				<rect y="15.8" x="19.7" height="5.2" class="st2" width="1"/>
			<path d="m2.5 10.5h-1.7v6.3h1.7c0.1 0 0.2-0.1 0.2-0.2v-5.8c0-0.2-0.1-0.3-0.2-0.3z"/>
			<path d="m24.6 16.8h1.7v-6.3h-1.7c-0.1 0-0.2 0.1-0.2 0.2v5.8c-0.1 0.2 0 0.3 0.2 0.3z"/>
			<linearGradient id="SVGID_2_" y2="1.8058" gradientUnits="userSpaceOnUse" x2="13.5" gradientTransform="matrix(1 0 0 -1 0 24)" y1="3.0924" x1="13.5">
			<stop stop-color="#fff" offset="0"/>
			<stop stop-color="#BABABA" offset="1"/>
		</linearGradient>
		<rect y="21" x=".8" height="1.1" class="st3" width="25.4"/>
	<rect y="2.6" x=".8" height="3.3" class="st4" width="5.3"/>
	<rect y="2.6" x="20.9" height="3.3" class="st4" width="5.3"/>
</svg>
