<?xml version="1.0" standalone="no"?><!DOCTYPE svg PUBLIC "-//W3C//DTD SVG 1.1//EN" "http://www.w3.org/Graphics/SVG/1.1/DTD/svg11.dtd"><svg t="1664455592070" class="icon" viewBox="0 0 1098 1024" version="1.1" xmlns="http://www.w3.org/2000/svg" p-id="10956" xmlns:xlink="http://www.w3.org/1999/xlink" width="21.4453125" height="20"><path d="M1024 566.848l0-475.424q0-7.424-5.44-12.864t-12.864-5.44l-914.272 0q-7.424 0-12.864 5.44t-5.44 12.864l0 475.424q0 7.424 5.44 12.864t12.864 5.44l914.272 0q7.424 0 12.864-5.44t5.44-12.864zM1097.152 91.424l0 621.728q0 37.728-26.848 64.576t-64.576 26.848l-310.848 0q0 21.152 9.152 44.288t18.272 40.576 9.152 24.864q0 14.848-10.848 25.728t-25.728 10.848l-292.576 0q-14.848 0-25.728-10.848t-10.848-25.728q0-8 9.152-25.152t18.272-40 9.152-44.576l-310.848 0q-37.728 0-64.576-26.848t-26.848-64.576l0-621.728q0-37.728 26.848-64.576t64.576-26.848l914.272 0q37.728 0 64.576 26.848t26.848 64.576z" p-id="10957"></path></svg>