<?xml version="1.0" encoding="UTF-8" standalone="no"?>
<!-- Generator: Adobe Illustrator 22.1.0, SVG Export Plug-In . SVG Version: 6.00 Build 0)  -->
<svg id="圖層_1" style="enable-background:new 0 0 27 22" xmlns="http://www.w3.org/2000/svg" xml:space="preserve" viewBox="0 0 27 22" version="1.1" y="0px" x="0px" xmlns:xlink="http://www.w3.org/1999/xlink">
<style type="text/css">
	.st0{fill:#FFA350;}
	.st1{fill:url(#SVGID_1_);}
</style>
			<path class="st0" d="m26.6 15.9h-0.4v-4.2h0.4c0.2 0 0.4-0.2 0.4-0.4s-0.2-0.4-0.4-0.4h-0.4v-4.4h-5.8v-3.9h-2.2v-2.6h-9.3v2.6h-2.3v3.8h-5.8v4.4h-0.4c-0.2 0-0.4 0.2-0.4 0.4s0.2 0.4 0.4 0.4h0.4v4.2h-0.4c-0.2 0.1-0.4 0.2-0.4 0.5s0.2 0.4 0.4 0.4h0.4v4.3h25.4v-4.3h0.4c0.2 0 0.4-0.2 0.4-0.4s-0.2-0.4-0.4-0.4z"/>
			<linearGradient id="SVGID_1_" y2="1.8058" gradientUnits="userSpaceOnUse" x2="13.5" gradientTransform="matrix(1 0 0 -1 0 24)" y1="3.0924" x1="13.5">
			<stop stop-color="#fff" offset="0"/>
			<stop stop-color="#BABABA" offset="1"/>
		</linearGradient>
		<rect y="21" x=".8" height="1.1" class="st1" width="25.4"/>
</svg>
