<?xml version="1.0" encoding="UTF-8" standalone="no"?>
<!-- Generator: Adobe Illustrator 22.1.0, SVG Export Plug-In . SVG Version: 6.00 Build 0)  -->
<svg id="圖層_1" style="enable-background:new 0 0 27 22" xmlns="http://www.w3.org/2000/svg" xml:space="preserve" viewBox="0 0 27 22" version="1.1" y="0px" x="0px" xmlns:xlink="http://www.w3.org/1999/xlink">
<style type="text/css">
	.st0{fill:url(#SVGID_1_);}
	.st1{fill:#212121;}
	.st2{fill:#111111;}
	.st3{fill:url(#SVGID_2_);}
	.st4{fill:none;}
</style>
				<linearGradient id="SVGID_1_" y2="749.42" gradientUnits="userSpaceOnUse" x2="-1324.5" gradientTransform="matrix(-1 0 0 1 -1311 -745.95)" y1="767.8" x1="-1324.5">
				<stop stop-color="#424242" offset="0"/>
				<stop stop-color="#010001" offset="1"/>
			</linearGradient>
			<path class="st0" d="m0.4 6.2h0.4v4.2h-0.4c-0.2 0-0.4 0.2-0.4 0.4s0.2 0.4 0.4 0.4h0.4v4.4h5.8v3.8h2.2v2.6h9.3v-2.6h2.2v-3.8h5.8v-4.4h0.4c0.2 0 0.4-0.2 0.4-0.4s-0.2-0.4-0.4-0.4h-0.4v-4.2h0.4c0.3 0 0.5-0.2 0.5-0.4s-0.2-0.4-0.4-0.4h-0.4v-4.3h-25.4v4.3h-0.4c-0.2 0-0.4 0.1-0.4 0.4s0.2 0.4 0.4 0.4z"/>
			<path class="st1" d="m4.6 10.1h17.8c0.6 0 1.1-0.5 1.1-1.1v-7.9h-20v7.9c0 0.6 0.5 1.1 1.1 1.1z"/>
				<rect y="1.1" x="20" height="5.2" class="st2" width="1"/>
				<rect y="1.1" x="18" height="5.2" class="st2" width="1"/>
				<rect y="1.1" x="16.1" height="5.2" class="st2" width="1"/>
				<rect y="1.1" x="14.1" height="5.2" class="st2" width="1"/>
				<rect y="1.1" x="12.2" height="5.2" class="st2" width="1"/>
				<rect y="1.1" x="10.2" height="5.2" class="st2" width="1"/>
				<rect y="1.1" x="8.2" height="5.2" class="st2" width="1"/>
				<rect y="1.1" x="6.3" height="5.2" class="st2" width="1"/>
			<path d="m24.5 11.6h1.7v-6.3h-1.7c-0.1 0-0.2 0.1-0.2 0.2v5.8c0 0.2 0.1 0.3 0.2 0.3z"/>
			<path d="m2.4 5.3h-1.6v6.3h1.7c0.1 0 0.2-0.1 0.2-0.2v-5.9c0-0.1-0.1-0.2-0.3-0.2z"/>
			<linearGradient id="SVGID_2_" y2="745.81" gradientUnits="userSpaceOnUse" x2="-1324.5" gradientTransform="matrix(-1 0 0 1 -1311 -745.95)" y1="747.09" x1="-1324.5">
			<stop stop-color="#fff" offset="0"/>
			<stop stop-color="#BABABA" offset="1"/>
		</linearGradient>
		<polygon points="0.8 0 26.2 0 26.2 1.1 0.8 1.1" class="st3"/>
	<rect y="16.2" x="20.9" height="3.3" class="st4" width="5.3"/>
	<rect y="16.2" x=".8" height="3.3" class="st4" width="5.3"/>
</svg>
