<?xml version="1.0" encoding="UTF-8" standalone="no"?>
<!-- Generator: Adobe Illustrator 22.1.0, SVG Export Plug-In . SVG Version: 6.00 Build 0)  -->
<svg id="圖層_1" style="enable-background:new 0 0 27 22.6" xmlns="http://www.w3.org/2000/svg" xml:space="preserve" viewBox="0 0 27 22.6" version="1.1" y="0px" x="0px" xmlns:xlink="http://www.w3.org/1999/xlink">
<style type="text/css">
	.st0{fill:#CCCAC8;}
	.st1{fill:url(#SVGID_1_);}
	.st2{fill:url(#SVGID_2_);}
	.st3{fill:url(#SVGID_3_);}
	.st4{opacity:0.42;fill:#857F7C;enable-background:new    ;}
	.st5{fill:url(#SVGID_4_);}
</style>
<rect width="27" class="st0" height="20.2"/>
		<linearGradient id="SVGID_1_" y2="761.98" gradientUnits="userSpaceOnUse" x2="4.75" gradientTransform="translate(0 -744)" y1="760.77" x1="4.75">
		<stop stop-color="#fff" offset="0"/>
		<stop stop-color="#BABABA" offset="1"/>
	</linearGradient>
	<rect y="16.8" x="1.1" height="1" class="st1" width="7.3"/>
		<linearGradient id="SVGID_2_" y2="761.98" gradientUnits="userSpaceOnUse" x2="22.15" gradientTransform="translate(0 -744)" y1="760.77" x1="22.15">
		<stop stop-color="#fff" offset="0"/>
		<stop stop-color="#BABABA" offset="1"/>
	</linearGradient>
	<rect y="16.8" x="18.5" height="1" class="st2" width="7.3"/>
		<linearGradient id="SVGID_3_" y2="754.3" gradientUnits="userSpaceOnUse" x2="25.833" gradientTransform="translate(0 -744)" y1="754.3" x1="1.0334">
		<stop stop-color="#424242" offset="0"/>
		<stop stop-color="#010001" offset="1"/>
	</linearGradient>
	<path class="st3" d="m25.8 1h-24.8v16h7.2v1.3c0 0.7 0.6 1.3 1.3 1.3h7.8c0.7 0 1.3-0.6 1.3-1.3v-1.3h7.2v-16z"/>
	<path class="st4" d="m18.6 18.3v-1.2c-0.3-0.8-1.1-1.3-2-1.3h-6.3c-0.9 0-1.7 0.5-2 1.3v1.2c0 0.7 0.6 1.3 1.3 1.3h7.8c0.6 0 1.2-0.6 1.2-1.3z"/>
		<linearGradient id="SVGID_4_" y2="1166.3" gradientUnits="userSpaceOnUse" x2="-2351.6" gradientTransform="matrix(-1 0 0 -1 -2338.2 1181.8)" y1="1165.1" x1="-2351.6">
		<stop stop-color="#fff" offset="0"/>
		<stop stop-color="#BABABA" offset="1"/>
	</linearGradient>
	<path class="st5" d="m9.4 15.8h8c0 0.5-0.4 0.9-0.9 0.9h-6.2c-0.5 0-0.9-0.4-0.9-0.9z"/>
</svg>
