<?xml version="1.0" standalone="no"?><!DOCTYPE svg PUBLIC "-//W3C//DTD SVG 1.1//EN" "http://www.w3.org/Graphics/SVG/1.1/DTD/svg11.dtd"><svg t="1664455651269" class="icon" viewBox="0 0 1024 1024" version="1.1" xmlns="http://www.w3.org/2000/svg" p-id="11587" xmlns:xlink="http://www.w3.org/1999/xlink" width="20" height="20"><path d="M1024 713.152l0 182.848q0 22.848-16 38.848t-38.848 16l-182.848 0q-22.848 0-38.848-16t-16-38.848l0-182.848q0-22.848 16-38.848t38.848-16l54.848 0 0-109.728-292.576 0 0 109.728 54.848 0q22.848 0 38.848 16t16 38.848l0 182.848q0 22.848-16 38.848t-38.848 16l-182.848 0q-22.848 0-38.848-16t-16-38.848l0-182.848q0-22.848 16-38.848t38.848-16l54.848 0 0-109.728-292.576 0 0 109.728 54.848 0q22.848 0 38.848 16t16 38.848l0 182.848q0 22.848-16 38.848t-38.848 16l-182.848 0q-22.848 0-38.848-16t-16-38.848l0-182.848q0-22.848 16-38.848t38.848-16l54.848 0 0-109.728q0-29.728 21.728-51.424t51.424-21.728l292.576 0 0-109.728-54.848 0q-22.848 0-38.848-16t-16-38.848l0-182.848q0-22.848 16-38.848t38.848-16l182.848 0q22.848 0 38.848 16t16 38.848l0 182.848q0 22.848-16 38.848t-38.848 16l-54.848 0 0 109.728 292.576 0q29.728 0 51.424 21.728t21.728 51.424l0 109.728 54.848 0q22.848 0 38.848 16t16 38.848z" p-id="11588"></path></svg>